<?xml version="1.0" standalone="no"?>
<!DOCTYPE svg PUBLIC "-//W3C//DTD SVG 20010904//EN"
 "http://www.w3.org/TR/2001/REC-SVG-20010904/DTD/svg10.dtd">
<svg version="1.0" xmlns="http://www.w3.org/2000/svg"
 width="170.000000pt" height="102.000000pt" viewBox="0 0 170.000000 102.000000"
 preserveAspectRatio="xMidYMid meet">

<g transform="translate(0.000000,102.000000) scale(0.100000,-0.100000)"
fill="#000000" stroke="none">
<path d="M883 816 c-10 -13 -25 -53 -32 -90 l-13 -66 -47 0 c-25 0 -69 -3 -98
-6 -49 -6 -53 -5 -64 18 -8 19 -8 31 0 46 10 18 22 22 84 24 l72 3 3 44 3 43
-79 -3 c-62 -3 -85 -8 -102 -24 -33 -30 -51 -70 -53 -120 -2 -43 -3 -44 -42
-50 -22 -4 -81 -17 -132 -30 -233 -61 -357 -166 -324 -275 64 -213 716 -327
1226 -215 65 14 72 14 102 -2 41 -22 81 -7 89 36 4 19 16 33 40 44 59 29 124
96 124 128 0 38 -10 37 -49 -6 -17 -19 -49 -47 -71 -61 -36 -24 -43 -25 -70
-14 -39 16 -77 1 -86 -34 -5 -20 -17 -27 -71 -40 -183 -46 -506 -60 -713 -31
-253 36 -448 121 -475 206 -30 92 144 199 389 240 l72 12 49 -37 c62 -47 75
-63 75 -96 0 -41 -17 -50 -101 -50 l-76 0 -7 -31 c-12 -60 -13 -59 82 -59 102
0 124 11 153 74 32 71 24 141 -23 192 l-19 21 58 6 c31 3 59 4 62 1 2 -2 -8
-57 -22 -122 -39 -166 -39 -166 0 -170 35 -3 27 -24 78 212 22 100 32 85 41
-64 7 -125 15 -150 44 -150 27 0 43 29 83 146 55 160 58 160 55 -1 l-3 -140
31 -3 31 -3 6 92 c4 51 7 112 7 136 0 43 0 43 37 43 27 0 49 -10 88 -40 69
-53 83 -81 61 -115 -15 -23 -22 -25 -91 -25 -40 0 -76 -3 -79 -8 -2 -4 -7 -24
-11 -45 l-7 -37 92 0 c91 0 93 1 125 33 22 22 36 48 43 83 18 84 3 117 -92
202 -37 33 -46 68 -24 90 7 7 39 12 75 12 59 0 64 2 73 26 22 58 17 64 -62 64
-116 0 -168 -49 -168 -155 0 -42 -2 -46 -22 -43 -22 3 -23 8 -24 91 -1 68 -5
92 -18 105 -15 15 -19 15 -44 2 -21 -12 -34 -35 -56 -98 -21 -62 -33 -82 -46
-82 -42 0 -50 11 -50 65 0 107 -43 157 -87 101z m136 -218 c0 -7 -9 -31 -18
-53 l-18 -40 -4 53 c-4 48 -2 52 19 52 12 0 22 -6 21 -12z m437 -414 c-5 -13
-10 -14 -18 -6 -6 6 -8 18 -4 28 5 13 10 14 18 6 6 -6 8 -18 4 -28z"/>
</g>
</svg>
